<?xml version="1.0" encoding="UTF-8" standalone="no"?>
<!DOCTYPE svg PUBLIC "-//W3C//DTD SVG 1.1//EN"
 "http://www.w3.org/Graphics/SVG/1.1/DTD/svg11.dtd">
<!-- Generated by graphviz version 2.36.0 (20140111.2315)
 -->
<!-- Title: G Pages: 1 -->
<svg width="552pt" height="446pt"
 viewBox="0.00 0.00 552.00 446.00" xmlns="http://www.w3.org/2000/svg" xmlns:xlink="http://www.w3.org/1999/xlink">
<g id="graph0" class="graph" transform="scale(1 1) rotate(0) translate(4 442)">
<title>G</title>
<polygon fill="white" stroke="none" points="-4,4 -4,-442 548,-442 548,4 -4,4"/>
<g id="clust1" class="cluster"><title>cluster_Global</title>
<path fill="none" stroke="gray" d="M352,-8C352,-8 524,-8 524,-8 530,-8 536,-14 536,-20 536,-20 536,-418 536,-418 536,-424 530,-430 524,-430 524,-430 352,-430 352,-430 346,-430 340,-424 340,-418 340,-418 340,-20 340,-20 340,-14 346,-8 352,-8"/>
<text text-anchor="middle" x="438" y="-417.2" font-family="Times,serif" font-size="11.00" fill="gray">Global</text>
</g>
<g id="clust2" class="cluster"><title>cluster_\Entities</title>
<path fill="none" stroke="gray" d="M402,-294C402,-294 474,-294 474,-294 480,-294 486,-300 486,-306 486,-306 486,-390 486,-390 486,-396 480,-402 474,-402 474,-402 402,-402 402,-402 396,-402 390,-396 390,-390 390,-390 390,-306 390,-306 390,-300 396,-294 402,-294"/>
<text text-anchor="middle" x="438" y="-389.2" font-family="Times,serif" font-size="11.00" fill="gray">Entities</text>
</g>
<g id="clust3" class="cluster"><title>cluster_\Entities\Artists</title>
<path fill="none" stroke="gray" d="M410,-302C410,-302 466,-302 466,-302 472,-302 478,-308 478,-314 478,-314 478,-362 478,-362 478,-368 472,-374 466,-374 466,-374 410,-374 410,-374 404,-374 398,-368 398,-362 398,-362 398,-314 398,-314 398,-308 404,-302 410,-302"/>
<text text-anchor="middle" x="438" y="-361.2" font-family="Times,serif" font-size="11.00" fill="gray">Artists</text>
</g>
<g id="clust4" class="cluster"><title>cluster_\Modules</title>
<path fill="none" stroke="gray" d="M360,-16C360,-16 516,-16 516,-16 522,-16 528,-22 528,-28 528,-28 528,-274 528,-274 528,-280 522,-286 516,-286 516,-286 360,-286 360,-286 354,-286 348,-280 348,-274 348,-274 348,-28 348,-28 348,-22 354,-16 360,-16"/>
<text text-anchor="middle" x="438" y="-273.2" font-family="Times,serif" font-size="11.00" fill="gray">Modules</text>
</g>
<g id="clust5" class="cluster"><title>cluster_\Modules\Blog</title>
<path fill="none" stroke="gray" d="M368,-24C368,-24 508,-24 508,-24 514,-24 520,-30 520,-36 520,-36 520,-246 520,-246 520,-252 514,-258 508,-258 508,-258 368,-258 368,-258 362,-258 356,-252 356,-246 356,-246 356,-36 356,-36 356,-30 362,-24 368,-24"/>
<text text-anchor="middle" x="438" y="-245.2" font-family="Times,serif" font-size="11.00" fill="gray">Blog</text>
</g>
<g id="clust6" class="cluster"><title>cluster_\Modules\Blog\Controllers</title>
<path fill="none" stroke="gray" d="M376,-158C376,-158 500,-158 500,-158 506,-158 512,-164 512,-170 512,-170 512,-218 512,-218 512,-224 506,-230 500,-230 500,-230 376,-230 376,-230 370,-230 364,-224 364,-218 364,-218 364,-170 364,-170 364,-164 370,-158 376,-158"/>
<text text-anchor="middle" x="438" y="-217.2" font-family="Times,serif" font-size="11.00" fill="gray">Controllers</text>
</g>
<g id="clust7" class="cluster"><title>cluster_\Modules\Blog\tests</title>
<path fill="none" stroke="gray" d="M396,-78C396,-78 480,-78 480,-78 486,-78 492,-84 492,-90 492,-90 492,-138 492,-138 492,-144 486,-150 480,-150 480,-150 396,-150 396,-150 390,-150 384,-144 384,-138 384,-138 384,-90 384,-90 384,-84 390,-78 396,-78"/>
<text text-anchor="middle" x="438" y="-137.2" font-family="Times,serif" font-size="11.00" fill="gray">tests</text>
</g>
<!-- \\Entities\\Artists\\Artists -->
<g id="node1" class="node"><title>\\Entities\\Artists\\Artists</title>
<polygon fill="none" stroke="black" points="470,-346 406,-346 406,-310 470,-310 470,-346"/>
<text text-anchor="middle" x="438" y="-325.2" font-family="Courier,monospace" font-size="11.00">Artists</text>
</g>
<!-- \\Modules\\Blog\\Controllers\\ArtistsController -->
<g id="node2" class="node"><title>\\Modules\\Blog\\Controllers\\ArtistsController</title>
<polygon fill="none" stroke="black" points="503.5,-202 372.5,-202 372.5,-166 503.5,-166 503.5,-202"/>
<text text-anchor="middle" x="438" y="-181.2" font-family="Courier,monospace" font-size="11.00">ArtistsController</text>
</g>
<!-- \\Lubakka\\Controllers\\MasterController -->
<g id="node5" class="node"><title>\\Lubakka\\Controllers\\MasterController</title>
<ellipse fill="none" stroke="black" cx="150" cy="-184" rx="149.473" ry="18"/>
<text text-anchor="middle" x="150" y="-180.3" font-family="Times,serif" font-size="14.00" fill="gray">\Lubakka\Controllers\MasterController</text>
</g>
<!-- \\Modules\\Blog\\Controllers\\ArtistsController&#45;&gt;\\Lubakka\\Controllers\\MasterController -->
<g id="edge1" class="edge"><title>\\Modules\\Blog\\Controllers\\ArtistsController&#45;&gt;\\Lubakka\\Controllers\\MasterController</title>
<path fill="none" stroke="black" d="M372.459,-184C353.529,-184 331.942,-184 309.844,-184"/>
<polygon fill="none" stroke="black" points="309.662,-180.5 299.662,-184 309.662,-187.5 309.662,-180.5"/>
</g>
<!-- \\Modules\\Blog\\tests\\ArtistsTest -->
<g id="node3" class="node"><title>\\Modules\\Blog\\tests\\ArtistsTest</title>
<polygon fill="none" stroke="black" points="483.5,-122 392.5,-122 392.5,-86 483.5,-86 483.5,-122"/>
<text text-anchor="middle" x="438" y="-101.2" font-family="Courier,monospace" font-size="11.00">ArtistsTest</text>
</g>
<!-- \\PHPUnit_Framework_TestCase -->
<g id="node6" class="node"><title>\\PHPUnit_Framework_TestCase</title>
<ellipse fill="none" stroke="black" cx="150" cy="-104" rx="126.978" ry="18"/>
<text text-anchor="middle" x="150" y="-100.3" font-family="Times,serif" font-size="14.00" fill="gray">\PHPUnit_Framework_TestCase</text>
</g>
<!-- \\Modules\\Blog\\tests\\ArtistsTest&#45;&gt;\\PHPUnit_Framework_TestCase -->
<g id="edge2" class="edge"><title>\\Modules\\Blog\\tests\\ArtistsTest&#45;&gt;\\PHPUnit_Framework_TestCase</title>
<path fill="none" stroke="black" d="M392.312,-104C363.758,-104 325.066,-104 287.033,-104"/>
<polygon fill="none" stroke="black" points="286.86,-100.5 276.86,-104 286.86,-107.5 286.86,-100.5"/>
</g>
<!-- \\Modules\\Blog\\BlogModule -->
<g id="node4" class="node"><title>\\Modules\\Blog\\BlogModule</title>
<polygon fill="none" stroke="black" points="480,-68 396,-68 396,-32 480,-32 480,-68"/>
<text text-anchor="middle" x="438" y="-47.2" font-family="Courier,monospace" font-size="11.00">BlogModule</text>
</g>
</g>
</svg>
