<?xml version="1.0" encoding="UTF-8" standalone="no"?>
<!DOCTYPE svg PUBLIC "-//W3C//DTD SVG 1.1//EN"
 "http://www.w3.org/Graphics/SVG/1.1/DTD/svg11.dtd">
<!-- Generated by graphviz version 2.36.0 (20140111.2315)
 -->
<!-- Title: G Pages: 1 -->
<svg width="594pt" height="1216pt"
 viewBox="0.00 0.00 594.00 1216.00" xmlns="http://www.w3.org/2000/svg" xmlns:xlink="http://www.w3.org/1999/xlink">
<g id="graph0" class="graph" transform="scale(1 1) rotate(0) translate(4 1212)">
<title>G</title>
<polygon fill="white" stroke="none" points="-4,4 -4,-1212 590,-1212 590,4 -4,4"/>
<g id="clust1" class="cluster"><title>cluster_Global</title>
<path fill="none" stroke="gray" d="M158,-44C158,-44 566,-44 566,-44 572,-44 578,-50 578,-56 578,-56 578,-1188 578,-1188 578,-1194 572,-1200 566,-1200 566,-1200 158,-1200 158,-1200 152,-1200 146,-1194 146,-1188 146,-1188 146,-56 146,-56 146,-50 152,-44 158,-44"/>
<text text-anchor="middle" x="362" y="-1187.2" font-family="Times,serif" font-size="11.00" fill="gray">Global</text>
</g>
<g id="clust2" class="cluster"><title>cluster_\Lubakka</title>
<path fill="none" stroke="gray" d="M166,-52C166,-52 558,-52 558,-52 564,-52 570,-58 570,-64 570,-64 570,-1160 570,-1160 570,-1166 564,-1172 558,-1172 558,-1172 166,-1172 166,-1172 160,-1172 154,-1166 154,-1160 154,-1160 154,-64 154,-64 154,-58 160,-52 166,-52"/>
<text text-anchor="middle" x="362" y="-1159.2" font-family="Times,serif" font-size="11.00" fill="gray">Lubakka</text>
</g>
<g id="clust3" class="cluster"><title>cluster_\Lubakka\View</title>
<path fill="none" stroke="gray" d="M468,-1072C468,-1072 514,-1072 514,-1072 520,-1072 526,-1078 526,-1084 526,-1084 526,-1132 526,-1132 526,-1138 520,-1144 514,-1144 514,-1144 468,-1144 468,-1144 462,-1144 456,-1138 456,-1132 456,-1132 456,-1084 456,-1084 456,-1078 462,-1072 468,-1072"/>
<text text-anchor="middle" x="491" y="-1131.2" font-family="Times,serif" font-size="11.00" fill="gray">View</text>
</g>
<g id="clust4" class="cluster"><title>cluster_\Lubakka\Controllers</title>
<path fill="none" stroke="gray" d="M432,-992C432,-992 550,-992 550,-992 556,-992 562,-998 562,-1004 562,-1004 562,-1052 562,-1052 562,-1058 556,-1064 550,-1064 550,-1064 432,-1064 432,-1064 426,-1064 420,-1058 420,-1052 420,-1052 420,-1004 420,-1004 420,-998 426,-992 432,-992"/>
<text text-anchor="middle" x="491" y="-1051.2" font-family="Times,serif" font-size="11.00" fill="gray">Controllers</text>
</g>
<g id="clust5" class="cluster"><title>cluster_\Lubakka\Doctrine</title>
<path fill="none" stroke="gray" d="M443,-858C443,-858 539,-858 539,-858 545,-858 551,-864 551,-870 551,-870 551,-972 551,-972 551,-978 545,-984 539,-984 539,-984 443,-984 443,-984 437,-984 431,-978 431,-972 431,-972 431,-870 431,-870 431,-864 437,-858 443,-858"/>
<text text-anchor="middle" x="491" y="-971.2" font-family="Times,serif" font-size="11.00" fill="gray">Doctrine</text>
</g>
<g id="clust6" class="cluster"><title>cluster_\Lubakka\Debug</title>
<path fill="none" stroke="gray" d="M468,-778C468,-778 514,-778 514,-778 520,-778 526,-784 526,-790 526,-790 526,-838 526,-838 526,-844 520,-850 514,-850 514,-850 468,-850 468,-850 462,-850 456,-844 456,-838 456,-838 456,-790 456,-790 456,-784 462,-778 468,-778"/>
<text text-anchor="middle" x="491" y="-837.2" font-family="Times,serif" font-size="11.00" fill="gray">Debug</text>
</g>
<g id="clust7" class="cluster"><title>cluster_\Lubakka\VendorInterface</title>
<path fill="none" stroke="gray" d="M213,-938C213,-938 313,-938 313,-938 319,-938 325,-944 325,-950 325,-950 325,-1124 325,-1124 325,-1130 319,-1136 313,-1136 313,-1136 213,-1136 213,-1136 207,-1136 201,-1130 201,-1124 201,-1124 201,-950 201,-950 201,-944 207,-938 213,-938"/>
<text text-anchor="middle" x="263" y="-1123.2" font-family="Times,serif" font-size="11.00" fill="gray">VendorInterface</text>
</g>
<g id="clust8" class="cluster"><title>cluster_\Lubakka\VendorInterface\Controllers</title>
<path fill="none" stroke="gray" d="M221,-992C221,-992 305,-992 305,-992 311,-992 317,-998 317,-1004 317,-1004 317,-1052 317,-1052 317,-1058 311,-1064 305,-1064 305,-1064 221,-1064 221,-1064 215,-1064 209,-1058 209,-1052 209,-1052 209,-1004 209,-1004 209,-998 215,-992 221,-992"/>
<text text-anchor="middle" x="263" y="-1051.2" font-family="Times,serif" font-size="11.00" fill="gray">Controllers</text>
</g>
<g id="clust9" class="cluster"><title>cluster_\Lubakka\HTTP</title>
<path fill="none" stroke="gray" d="M439,-482C439,-482 543,-482 543,-482 549,-482 555,-488 555,-494 555,-494 555,-758 555,-758 555,-764 549,-770 543,-770 543,-770 439,-770 439,-770 433,-770 427,-764 427,-758 427,-758 427,-494 427,-494 427,-488 433,-482 439,-482"/>
<text text-anchor="middle" x="491" y="-757.2" font-family="Times,serif" font-size="11.00" fill="gray">HTTP</text>
</g>
<g id="clust10" class="cluster"><title>cluster_\Lubakka\FileSystem</title>
<path fill="none" stroke="gray" d="M453,-402C453,-402 529,-402 529,-402 535,-402 541,-408 541,-414 541,-414 541,-462 541,-462 541,-468 535,-474 529,-474 529,-474 453,-474 453,-474 447,-474 441,-468 441,-462 441,-462 441,-414 441,-414 441,-408 447,-402 453,-402"/>
<text text-anchor="middle" x="491" y="-461.2" font-family="Times,serif" font-size="11.00" fill="gray">FileSystem</text>
</g>
<g id="clust11" class="cluster"><title>cluster_\Lubakka\Exception</title>
<path fill="none" stroke="gray" d="M174,-60C174,-60 352,-60 352,-60 358,-60 364,-66 364,-72 364,-72 364,-282 364,-282 364,-288 358,-294 352,-294 352,-294 174,-294 174,-294 168,-294 162,-288 162,-282 162,-282 162,-72 162,-72 162,-66 168,-60 174,-60"/>
<text text-anchor="middle" x="263" y="-281.2" font-family="Times,serif" font-size="11.00" fill="gray">Exception</text>
</g>
<g id="clust12" class="cluster"><title>cluster_\Lubakka\Service</title>
<path fill="none" stroke="gray" d="M456,-60C456,-60 526,-60 526,-60 532,-60 538,-66 538,-72 538,-72 538,-120 538,-120 538,-126 532,-132 526,-132 526,-132 456,-132 456,-132 450,-132 444,-126 444,-120 444,-120 444,-72 444,-72 444,-66 450,-60 456,-60"/>
<text text-anchor="middle" x="491" y="-119.2" font-family="Times,serif" font-size="11.00" fill="gray">Service</text>
</g>
<!-- \\Lubakka\\View\\View -->
<g id="node1" class="node"><title>\\Lubakka\\View\\View</title>
<polygon fill="none" stroke="black" points="518,-1116 464,-1116 464,-1080 518,-1080 518,-1116"/>
<text text-anchor="middle" x="491" y="-1095.2" font-family="Courier,monospace" font-size="11.00">View</text>
</g>
<!-- \\Lubakka\\VendorInterface\\IView -->
<g id="node7" class="node"><title>\\Lubakka\\VendorInterface\\IView</title>
<polygon fill="none" stroke="black" points="290,-1108 236,-1108 236,-1072 290,-1072 290,-1108"/>
<text text-anchor="middle" x="263" y="-1087.2" font-family="Courier,monospace" font-size="11.00">IView</text>
</g>
<!-- \\Lubakka\\View\\View&#45;&gt;\\Lubakka\\VendorInterface\\IView -->
<g id="edge1" class="edge"><title>\\Lubakka\\View\\View&#45;&gt;\\Lubakka\\VendorInterface\\IView</title>
<path fill="none" stroke="black" stroke-dasharray="1,5" d="M463.633,-1097.07C423.232,-1095.64 345.907,-1092.9 300.258,-1091.28"/>
<polygon fill="none" stroke="black" points="300.317,-1087.78 290.199,-1090.93 300.069,-1094.78 300.317,-1087.78"/>
</g>
<!-- \\Lubakka\\Controllers\\MasterController -->
<g id="node2" class="node"><title>\\Lubakka\\Controllers\\MasterController</title>
<polygon fill="none" stroke="black" points="553.5,-1036 428.5,-1036 428.5,-1000 553.5,-1000 553.5,-1036"/>
<text text-anchor="start" x="457" y="-1021.2" font-family="Courier,monospace" font-size="11.00">«abstract»</text>
<text text-anchor="start" x="436.5" y="-1009.2" font-family="Courier,monospace" font-size="11.00">MasterController</text>
</g>
<!-- \\Lubakka\\VendorInterface\\Controllers\\IController -->
<g id="node6" class="node"><title>\\Lubakka\\VendorInterface\\Controllers\\IController</title>
<polygon fill="none" stroke="black" points="308.5,-1036 217.5,-1036 217.5,-1000 308.5,-1000 308.5,-1036"/>
<text text-anchor="middle" x="263" y="-1015.2" font-family="Courier,monospace" font-size="11.00">IController</text>
</g>
<!-- \\Lubakka\\Controllers\\MasterController&#45;&gt;\\Lubakka\\VendorInterface\\Controllers\\IController -->
<g id="edge2" class="edge"><title>\\Lubakka\\Controllers\\MasterController&#45;&gt;\\Lubakka\\VendorInterface\\Controllers\\IController</title>
<path fill="none" stroke="black" stroke-dasharray="1,5" d="M428.245,-1018C394.163,-1018 352.191,-1018 319.208,-1018"/>
<polygon fill="none" stroke="black" points="318.836,-1014.5 308.836,-1018 318.836,-1021.5 318.836,-1014.5"/>
</g>
<!-- \\Lubakka\\Doctrine\\Config -->
<g id="node3" class="node"><title>\\Lubakka\\Doctrine\\Config</title>
<polygon fill="none" stroke="black" points="519.5,-956 462.5,-956 462.5,-920 519.5,-920 519.5,-956"/>
<text text-anchor="middle" x="491" y="-935.2" font-family="Courier,monospace" font-size="11.00">Config</text>
</g>
<!-- \\Lubakka\\Doctrine\\EntityManager -->
<g id="node4" class="node"><title>\\Lubakka\\Doctrine\\EntityManager</title>
<polygon fill="none" stroke="black" points="543,-902 439,-902 439,-866 543,-866 543,-902"/>
<text text-anchor="middle" x="491" y="-881.2" font-family="Courier,monospace" font-size="11.00">EntityManager</text>
</g>
<!-- \\Lubakka\\Debug\\Debug -->
<g id="node5" class="node"><title>\\Lubakka\\Debug\\Debug</title>
<polygon fill="none" stroke="black" points="518,-822 464,-822 464,-786 518,-786 518,-822"/>
<text text-anchor="middle" x="491" y="-801.2" font-family="Courier,monospace" font-size="11.00">Debug</text>
</g>
<!-- \\Lubakka\\VendorInterface\\IRouter -->
<g id="node8" class="node"><title>\\Lubakka\\VendorInterface\\IRouter</title>
<polygon fill="none" stroke="black" points="295,-982 231,-982 231,-946 295,-946 295,-982"/>
<text text-anchor="middle" x="263" y="-961.2" font-family="Courier,monospace" font-size="11.00">IRouter</text>
</g>
<!-- \\Lubakka\\HTTP\\Response -->
<g id="node9" class="node"><title>\\Lubakka\\HTTP\\Response</title>
<polygon fill="none" stroke="black" points="526.5,-742 455.5,-742 455.5,-706 526.5,-706 526.5,-742"/>
<text text-anchor="middle" x="491" y="-721.2" font-family="Courier,monospace" font-size="11.00">Response</text>
</g>
<!-- \\Lubakka\\HTTP\\parameterBag -->
<g id="node10" class="node"><title>\\Lubakka\\HTTP\\parameterBag</title>
<polygon fill="none" stroke="black" points="540,-688 442,-688 442,-652 540,-652 540,-688"/>
<text text-anchor="middle" x="491" y="-667.2" font-family="Courier,monospace" font-size="11.00">parameterBag</text>
</g>
<!-- \\Lubakka\\HTTP\\HttpFactory -->
<g id="node11" class="node"><title>\\Lubakka\\HTTP\\HttpFactory</title>
<polygon fill="none" stroke="black" points="536.5,-634 445.5,-634 445.5,-598 536.5,-598 536.5,-634"/>
<text text-anchor="middle" x="491" y="-613.2" font-family="Courier,monospace" font-size="11.00">HttpFactory</text>
</g>
<!-- \\Lubakka\\HTTP\\HttpStatusCode -->
<g id="node12" class="node"><title>\\Lubakka\\HTTP\\HttpStatusCode</title>
<polygon fill="none" stroke="black" points="546.5,-580 435.5,-580 435.5,-544 546.5,-544 546.5,-580"/>
<text text-anchor="middle" x="491" y="-559.2" font-family="Courier,monospace" font-size="11.00">HttpStatusCode</text>
</g>
<!-- \\Lubakka\\HTTP\\Request -->
<g id="node13" class="node"><title>\\Lubakka\\HTTP\\Request</title>
<polygon fill="none" stroke="black" points="523,-526 459,-526 459,-490 523,-490 523,-526"/>
<text text-anchor="middle" x="491" y="-505.2" font-family="Courier,monospace" font-size="11.00">Request</text>
</g>
<!-- \\Lubakka\\FileSystem\\FileSystem -->
<g id="node14" class="node"><title>\\Lubakka\\FileSystem\\FileSystem</title>
<polygon fill="none" stroke="black" points="533,-446 449,-446 449,-410 533,-410 533,-446"/>
<text text-anchor="middle" x="491" y="-425.2" font-family="Courier,monospace" font-size="11.00">FileSystem</text>
</g>
<!-- \\Lubakka\\Exception\\FrontControllerException -->
<g id="node15" class="node"><title>\\Lubakka\\Exception\\FrontControllerException</title>
<polygon fill="none" stroke="black" points="352.5,-266 173.5,-266 173.5,-230 352.5,-230 352.5,-266"/>
<text text-anchor="middle" x="263" y="-245.2" font-family="Courier,monospace" font-size="11.00">FrontControllerException</text>
</g>
<!-- \\Exception -->
<g id="node25" class="node"><title>\\Exception</title>
<ellipse fill="none" stroke="black" cx="49" cy="-167" rx="48.9926" ry="18"/>
<text text-anchor="middle" x="49" y="-163.3" font-family="Times,serif" font-size="14.00" fill="gray">\Exception</text>
</g>
<!-- \\Lubakka\\Exception\\FrontControllerException&#45;&gt;\\Exception -->
<g id="edge3" class="edge"><title>\\Lubakka\\Exception\\FrontControllerException&#45;&gt;\\Exception</title>
<path fill="none" stroke="black" d="M173.479,-230.166C164.086,-227.456 154.77,-224.407 146,-221 123.839,-212.391 100.56,-199.407 82.4768,-188.329"/>
<polygon fill="none" stroke="black" points="83.8635,-185.069 73.5272,-182.742 80.1569,-191.007 83.8635,-185.069"/>
</g>
<!-- \\Lubakka\\Exception\\MasterControllerException -->
<g id="node16" class="node"><title>\\Lubakka\\Exception\\MasterControllerException</title>
<polygon fill="none" stroke="black" points="355.5,-212 170.5,-212 170.5,-176 355.5,-176 355.5,-212"/>
<text text-anchor="middle" x="263" y="-191.2" font-family="Courier,monospace" font-size="11.00">MasterControllerException</text>
</g>
<!-- \\Lubakka\\Exception\\MasterControllerException&#45;&gt;\\Exception -->
<g id="edge4" class="edge"><title>\\Lubakka\\Exception\\MasterControllerException&#45;&gt;\\Exception</title>
<path fill="none" stroke="black" d="M170.247,-182.314C148.138,-179.499 125.188,-176.576 105.337,-174.048"/>
<polygon fill="none" stroke="black" points="105.622,-170.556 95.2599,-172.764 104.738,-177.5 105.622,-170.556"/>
</g>
<!-- \\Lubakka\\Exception\\BootstrapException -->
<g id="node17" class="node"><title>\\Lubakka\\Exception\\BootstrapException</title>
<polygon fill="none" stroke="black" points="332,-158 194,-158 194,-122 332,-122 332,-158"/>
<text text-anchor="middle" x="263" y="-137.2" font-family="Courier,monospace" font-size="11.00">BootstrapException</text>
</g>
<!-- \\Lubakka\\Exception\\BootstrapException&#45;&gt;\\Exception -->
<g id="edge5" class="edge"><title>\\Lubakka\\Exception\\BootstrapException&#45;&gt;\\Exception</title>
<path fill="none" stroke="black" d="M193.755,-148.692C165.205,-152.328 132.451,-156.499 105.426,-159.941"/>
<polygon fill="none" stroke="black" points="104.847,-156.486 95.3696,-161.222 105.732,-163.43 104.847,-156.486"/>
</g>
<!-- \\Lubakka\\Exception\\ViewException -->
<g id="node18" class="node"><title>\\Lubakka\\Exception\\ViewException</title>
<polygon fill="none" stroke="black" points="315,-104 211,-104 211,-68 315,-68 315,-104"/>
<text text-anchor="middle" x="263" y="-83.2" font-family="Courier,monospace" font-size="11.00">ViewException</text>
</g>
<!-- \\Lubakka\\Exception\\ViewException&#45;&gt;\\Exception -->
<g id="edge6" class="edge"><title>\\Lubakka\\Exception\\ViewException&#45;&gt;\\Exception</title>
<path fill="none" stroke="black" d="M210.813,-94.6503C190.272,-98.957 166.623,-104.988 146,-113 123.839,-121.609 100.56,-134.593 82.4768,-145.671"/>
<polygon fill="none" stroke="black" points="80.1569,-142.993 73.5272,-151.258 83.8635,-148.931 80.1569,-142.993"/>
</g>
<!-- \\Lubakka\\Service\\Container -->
<g id="node19" class="node"><title>\\Lubakka\\Service\\Container</title>
<polygon fill="none" stroke="black" points="529.5,-104 452.5,-104 452.5,-68 529.5,-68 529.5,-104"/>
<text text-anchor="middle" x="491" y="-83.2" font-family="Courier,monospace" font-size="11.00">Container</text>
</g>
<!-- \\ArrayAccess -->
<g id="node26" class="node"><title>\\ArrayAccess</title>
<ellipse fill="none" stroke="black" cx="263" cy="-18" rx="58.4896" ry="18"/>
<text text-anchor="middle" x="263" y="-14.3" font-family="Times,serif" font-size="14.00" fill="gray">\ArrayAccess</text>
</g>
<!-- \\Lubakka\\Service\\Container&#45;&gt;\\ArrayAccess -->
<g id="edge7" class="edge"><title>\\Lubakka\\Service\\Container&#45;&gt;\\ArrayAccess</title>
<path fill="none" stroke="black" stroke-dasharray="1,5" d="M452.427,-74.6948C414.894,-63.4018 356.93,-45.9613 315.202,-33.4061"/>
<polygon fill="none" stroke="black" points="316.083,-30.0161 305.499,-30.4863 314.066,-36.7192 316.083,-30.0161"/>
</g>
<!-- \\Lubakka\\Kernel -->
<g id="node20" class="node"><title>\\Lubakka\\Kernel</title>
<polygon fill="none" stroke="black" points="519.5,-338 462.5,-338 462.5,-302 519.5,-302 519.5,-338"/>
<text text-anchor="middle" x="491" y="-317.2" font-family="Courier,monospace" font-size="11.00">Kernel</text>
</g>
<!-- \\Lubakka\\Helpers -->
<g id="node21" class="node"><title>\\Lubakka\\Helpers</title>
<polygon fill="none" stroke="black" points="523,-284 459,-284 459,-248 523,-248 523,-284"/>
<text text-anchor="middle" x="491" y="-263.2" font-family="Courier,monospace" font-size="11.00">Helpers</text>
</g>
<!-- \\Lubakka\\Session -->
<g id="node22" class="node"><title>\\Lubakka\\Session</title>
<polygon fill="none" stroke="black" points="523,-230 459,-230 459,-194 523,-194 523,-230"/>
<text text-anchor="middle" x="491" y="-209.2" font-family="Courier,monospace" font-size="11.00">Session</text>
</g>
<!-- \\Lubakka\\Router -->
<g id="node23" class="node"><title>\\Lubakka\\Router</title>
<polygon fill="none" stroke="black" points="519.5,-392 462.5,-392 462.5,-356 519.5,-356 519.5,-392"/>
<text text-anchor="middle" x="491" y="-371.2" font-family="Courier,monospace" font-size="11.00">Router</text>
</g>
<!-- \\Lubakka\\Router&#45;&gt;\\Lubakka\\VendorInterface\\IRouter -->
<g id="edge8" class="edge"><title>\\Lubakka\\Router&#45;&gt;\\Lubakka\\VendorInterface\\IRouter</title>
<path fill="none" stroke="black" stroke-dasharray="1,5" d="M462.412,-377.232C447.949,-380.305 431.002,-386.302 420,-398 270.699,-556.754 261.971,-845.138 263.149,-935.882"/>
<polygon fill="none" stroke="black" points="259.651,-936.013 263.333,-945.947 266.65,-935.885 259.651,-936.013"/>
</g>
<!-- \\Lubakka\\FrontController -->
<g id="node24" class="node"><title>\\Lubakka\\FrontController</title>
<polygon fill="none" stroke="black" points="550,-176 432,-176 432,-140 550,-140 550,-176"/>
<text text-anchor="middle" x="491" y="-155.2" font-family="Courier,monospace" font-size="11.00">FrontController</text>
</g>
<!-- \\Lubakka\\FrontController&#45;&gt;\\Lubakka\\Exception\\FrontControllerException -->
<g id="edge9" class="edge"><title>\\Lubakka\\FrontController&#45;&gt;\\Lubakka\\Exception\\FrontControllerException</title>
<path fill="none" stroke="black" d="M439.371,-176.113C432.763,-178.887 426.156,-181.875 420,-185 393.617,-198.393 391.046,-209.002 364,-221 359.559,-222.97 354.942,-224.825 350.235,-226.567"/>
<polygon fill="none" stroke="black" points="348.756,-223.376 340.475,-229.985 351.07,-229.983 348.756,-223.376"/>
</g>
</g>
</svg>
